<svg width="48" height="48" viewBox="0 0 48 48" fill="none" xmlns="http://www.w3.org/2000/svg">
  <!-- Background circle -->
  <circle cx="24" cy="24" r="24" fill="#2563eb"/>
  
  <!-- Roof structure -->
  <path d="M24 8L38 20H10L24 8Z" fill="#ffffff" stroke="#e5e7eb" stroke-width="1" stroke-linejoin="round"/>
  
  <!-- House base -->
  <rect x="14" y="20" width="20" height="16" fill="#f8fafc" stroke="#e5e7eb" stroke-width="0.5"/>
  
  <!-- Door -->
  <rect x="21" y="26" width="6" height="10" fill="#374151" rx="1"/>
  
  <!-- Door handle -->
  <circle cx="25.5" cy="31" r="0.5" fill="#9ca3af"/>
  
  <!-- Windows -->
  <rect x="16" y="22" width="3.5" height="3.5" fill="#3b82f6" stroke="#1e40af" stroke-width="0.3"/>
  <rect x="28.5" y="22" width="3.5" height="3.5" fill="#3b82f6" stroke="#1e40af" stroke-width="0.3"/>
  
  <!-- Window cross -->
  <line x1="17.75" y1="22" x2="17.75" y2="25.5" stroke="#1e40af" stroke-width="0.3"/>
  <line x1="16" y1="23.75" x2="19.5" y2="23.75" stroke="#1e40af" stroke-width="0.3"/>
  <line x1="30.25" y1="22" x2="30.25" y2="25.5" stroke="#1e40af" stroke-width="0.3"/>
  <line x1="28.5" y1="23.75" x2="32" y2="23.75" stroke="#1e40af" stroke-width="0.3"/>
  
  <!-- Roof ridge -->
  <line x1="10" y1="20" x2="38" y2="20" stroke="#e5e7eb" stroke-width="0.8"/>
  
  <!-- Foundation -->
  <rect x="13" y="36" width="22" height="2" fill="#e5e7eb" opacity="0.8"/>
  
  <!-- Subtle roof texture -->
  <line x1="14" y1="17" x2="17" y2="14" stroke="#e5e7eb" stroke-width="0.4" opacity="0.6"/>
  <line x1="20" y1="11" x2="23" y2="14" stroke="#e5e7eb" stroke-width="0.4" opacity="0.6"/>
  <line x1="25" y1="14" x2="28" y2="11" stroke="#e5e7eb" stroke-width="0.4" opacity="0.6"/>
  <line x1="31" y1="14" x2="34" y2="17" stroke="#e5e7eb" stroke-width="0.4" opacity="0.6"/>
</svg>