<svg width="32" height="32" viewBox="0 0 32 32" fill="none" xmlns="http://www.w3.org/2000/svg">
  <!-- Roof structure -->
  <path d="M16 4L26 14H6L16 4Z" fill="#2563eb" stroke="#1e40af" stroke-width="1.5" stroke-linejoin="round"/>
  
  <!-- House base -->
  <rect x="8" y="14" width="16" height="12" fill="#f3f4f6" stroke="#6b7280" stroke-width="1"/>
  
  <!-- Door -->
  <rect x="13" y="18" width="6" height="8" fill="#374151" rx="1"/>
  
  <!-- Door handle -->
  <circle cx="17.5" cy="22" r="0.5" fill="#9ca3af"/>
  
  <!-- Windows -->
  <rect x="10" y="16" width="3" height="3" fill="#3b82f6" stroke="#1e40af" stroke-width="0.5"/>
  <rect x="19" y="16" width="3" height="3" fill="#3b82f6" stroke="#1e40af" stroke-width="0.5"/>
  
  <!-- Window cross -->
  <line x1="11.5" y1="16" x2="11.5" y2="19" stroke="#1e40af" stroke-width="0.5"/>
  <line x1="10" y1="17.5" x2="13" y2="17.5" stroke="#1e40af" stroke-width="0.5"/>
  <line x1="20.5" y1="16" x2="20.5" y2="19" stroke="#1e40af" stroke-width="0.5"/>
  <line x1="19" y1="17.5" x2="22" y2="17.5" stroke="#1e40af" stroke-width="0.5"/>
  
  <!-- Roof ridge -->
  <line x1="6" y1="14" x2="26" y2="14" stroke="#1e40af" stroke-width="1"/>
  
  <!-- Foundation -->
  <rect x="7" y="26" width="18" height="2" fill="#6b7280"/>
  
  <!-- Subtle roof texture lines -->
  <line x1="9" y1="12" x2="11" y2="10" stroke="#1e40af" stroke-width="0.5" opacity="0.5"/>
  <line x1="13" y1="8" x2="15" y2="10" stroke="#1e40af" stroke-width="0.5" opacity="0.5"/>
  <line x1="17" y1="10" x2="19" y2="8" stroke="#1e40af" stroke-width="0.5" opacity="0.5"/>
  <line x1="21" y1="10" x2="23" y2="12" stroke="#1e40af" stroke-width="0.5" opacity="0.5"/>
</svg>